<svg version="1.1" id="el_uWr0RoEji" xmlns="http://www.w3.org/2000/svg" xmlns:xlink="http://www.w3.org/1999/xlink" x="0px" y="0px" viewBox="0 0 122 55" style="enable-background:new 0 0 122.5 55.7;" xml:space="preserve"><style>@-webkit-keyframes el_6I4xhZflaT_j_EqfENH9_Animation{0%{-webkit-transform: rotate(0deg);transform: rotate(0deg);}100%{-webkit-transform: rotate(361deg);transform: rotate(361deg);}}@keyframes el_6I4xhZflaT_j_EqfENH9_Animation{0%{-webkit-transform: rotate(0deg);transform: rotate(0deg);}100%{-webkit-transform: rotate(361deg);transform: rotate(361deg);}}#el_uWr0RoEji *{-webkit-animation-duration: 3s;animation-duration: 3s;-webkit-animation-iteration-count: infinite;animation-iteration-count: infinite;-webkit-animation-timing-function: cubic-bezier(0, 0, 1, 1);animation-timing-function: cubic-bezier(0, 0, 1, 1);}#el_ZT7_0gDmCr{fill: #FFFFFF;}#el__g1DC4XgR-{fill: #FFFFFF;}#el_TLZevBYABm{fill: #FFFFFF;}#el_qGbUDe5KIO{fill: #FFFFFF;}#el_WCB5U1c6We{fill: #FFFFFF;}#el_6I4xhZflaT{fill: #FF9A0A;}#el_6I4xhZflaT_j_EqfENH9{-webkit-animation-name: el_6I4xhZflaT_j_EqfENH9_Animation;animation-name: el_6I4xhZflaT_j_EqfENH9_Animation;-webkit-transform-origin: 50% 50%;transform-origin: 50% 50%;transform-box: fill-box;-webkit-transform: rotate(0deg);transform: rotate(0deg);}</style>

<g id="el_LxhZpP_XlP">
	<g id="el_46hfwsMQXS">
		<path d="M18.3,52c0-1.8,0-3.5,0-5.3c-0.4,0-0.6,0-0.9,0c-4.3,0-8.6,0-12.9,0c-1.7,0-2.2-0.5-2.2-2.2&#10;&#9;&#9;&#9;c0-11.5,0-22.9,0-34.4c0-1.7,0.5-2.2,2.2-2.2c4.3,0,8.6,0,12.9,0c0.3,0,0.6,0,0.9,0c0-2.1,0-4.1,0-6.2c1.6,0.3,3.2,0.5,4.7,0.8&#10;&#9;&#9;&#9;c6.9,1.2,13.8,2.3,20.7,3.5c2.6,0.4,5.1,0.9,7.6,1.3C51.9,7.2,52,7.4,52,7.9c0,12.6,0,25.2,0,37.8c0,0.5-0.2,0.7-0.7,0.8&#10;&#9;&#9;&#9;c-10.7,1.8-21.4,3.6-32.2,5.3C18.8,51.9,18.6,51.9,18.3,52z M41.9,28.8c-0.9,0-1.7,0-2.4,0c-1.9,0-1.9,0-2.6,1.7&#10;&#9;&#9;&#9;c-1,2.7-2.1,5.3-3.1,7.9c-0.2-0.8-0.5-1.7-0.8-2.5c-1.9-4.8-3.9-9.7-5.8-14.5c-0.8-2-1.6-4.1-2.5-6.1c-0.7-1.7-0.9-1.8-2.7-1.8&#10;&#9;&#9;&#9;c-2.3,0-4.5,0-6.8,0c-2.2,0-4.5,0-6.7,0c-0.3,0-0.7,0.2-0.7,0.3c-0.1,1.3,0,2.5,0,3.8c0.4,0,0.7,0,1,0c4,0,7.9,0,11.9,0&#10;&#9;&#9;&#9;c0.5,0,0.8,0.1,1,0.6c0.4,1.2,0.9,2.3,1.4,3.5c2.9,7.1,5.8,14.3,8.7,21.4c0.2,0.5,0.4,0.6,0.9,0.6c0.8,0,1.7,0,2.5,0&#10;&#9;&#9;&#9;c0.5,0,0.7-0.1,0.9-0.6c1.3-3.2,2.6-6.4,3.9-9.6C40.5,32,41.2,30.5,41.9,28.8z M18.3,25.3c0-1.1,0-2.1,0-3.2&#10;&#9;&#9;&#9;c0-0.6-0.1-0.8-0.8-0.8c-2.9,0-5.8,0-8.7,0c-0.2,0-0.5,0-0.7,0c0,1.3,0,2.6,0,3.9C11.5,25.3,14.8,25.3,18.3,25.3z M8.1,33&#10;&#9;&#9;&#9;c3.4,0,6.8,0,10.1,0c0-1.3,0-2.5,0-3.8c-3.4,0-6.7,0-10.1,0C8.1,30.5,8.1,31.7,8.1,33z M8.1,36.9c0,1.3,0,2.6,0,3.9&#10;&#9;&#9;&#9;c3.4,0,6.8,0,10.2,0c0-1.1,0-2.1,0-3.1c0-0.6-0.2-0.8-0.8-0.8c-2.9,0-5.8,0-8.7,0C8.6,36.9,8.3,36.9,8.1,36.9z" id="el_ZT7_0gDmCr"/>
		<path d="M72.6,43.2c0.3-0.8,0.6-1.5,0.9-2.3c3.5-8.8,7.1-17.7,10.6-26.5c0.2-0.5,0.4-0.8,1.1-0.7&#10;&#9;&#9;&#9;c0.9,0.1,1.7,0.1,2.6,0c0.6,0,0.8,0.2,1.1,0.7c3.4,8.4,6.7,16.8,10.1,25.2c0.5,1.2,0.9,2.3,1.4,3.6c-1.2,0-2.3,0-3.3,0&#10;&#9;&#9;&#9;c-0.6,0-0.9-0.5-1.1-1.1c-0.8-2.1-1.7-4.2-2.5-6.3c-0.2-0.4-0.4-0.7-0.9-0.7c-4,0-8.1,0-12.1,0c-0.5,0-0.7,0.2-0.9,0.6&#10;&#9;&#9;&#9;c-0.8,2.1-1.6,4.2-2.4,6.3c-0.4,1-0.7,1.2-1.8,1.2c-0.8,0-1.6,0-2.4,0C72.8,43.3,72.8,43.3,72.6,43.2z M92,32.3&#10;&#9;&#9;&#9;c-1.9-4.9-3.7-9.7-5.5-14.5c-1.8,4.8-3.7,9.6-5.5,14.5C84.6,32.3,88.3,32.3,92,32.3z" id="el__g1DC4XgR-"/>
		<path d="M105.1,30.5c0,4.3,0,8.4,0,12.7c-1.4,0-2.6,0-4,0c0-9.8,0-19.6,0-29.5c6.1,0,12.1,0,18.2,0c0,1,0,2.1,0,3.2&#10;&#9;&#9;&#9;c-4.7,0-9.4,0-14.2,0c0,0.3,0,0.5,0,0.8c0,3,0,5.9,0,8.9c0,0.6,0.1,0.8,0.8,0.8c3.5,0,7,0,10.5,0c0.3,0,0.6,0,0.9,0&#10;&#9;&#9;&#9;c0,1.1,0,2.1,0,3.2C113.2,30.5,109.2,30.5,105.1,30.5z" id="el_TLZevBYABm"/>
		<path d="M68,43.2c-1.4,0-2.6,0-3.9,0c0-8.7,0-17.4,0-26.2c-3.2,0-6.4,0-9.6,0c0-1.1,0-2.2,0-3.3c7.7,0,15.4,0,23.2,0&#10;&#9;&#9;&#9;c0,1,0,1.9,0,2.8c0,0.1-0.4,0.4-0.7,0.4c-2.7,0-5.3,0-8,0c-0.3,0-0.6,0-0.9,0C68,25.8,68,34.5,68,43.2z" id="el_qGbUDe5KIO"/>
		<path d="M42.6,19.9c0,1.4-1,2.5-2.4,2.5c-1.4,0-2.5-1.1-2.5-2.4c0-1.4,1.1-2.5,2.4-2.5C41.5,17.5,42.6,18.6,42.6,19.9&#10;&#9;&#9;&#9;z" id="el_WCB5U1c6We"/>
	</g>
</g>
<g id="el_duxmpts2HK">
	<g id="el_-xIEHbPoHp">
		<g id="el_6I4xhZflaT_j_EqfENH9" data-animator-group="true" data-animator-type="1"><path d="M46.8,19.2c0-0.2-0.2-0.3-0.4-0.3c-0.6,0-1.2-0.4-1.4-0.9c-0.2-0.6-0.1-1.2,0.4-1.7c0.1-0.1,0.2-0.4,0-0.5&#10;&#9;&#9;&#9;c-0.3-0.4-0.7-0.8-1.1-1.1c-0.2-0.1-0.4-0.1-0.5,0c-0.4,0.4-1.1,0.6-1.7,0.4c-0.6-0.2-0.9-0.8-0.9-1.5c0-0.2-0.1-0.4-0.3-0.4&#10;&#9;&#9;&#9;c-0.5-0.1-1-0.1-1.5,0c-0.2,0-0.3,0.2-0.3,0.4c0,0.6-0.3,1.2-0.9,1.4c-0.5,0.2-1.3,0.1-1.7-0.4c-0.1-0.1-0.4-0.2-0.5,0&#10;&#9;&#9;&#9;c-0.4,0.3-0.8,0.7-1.1,1.1c-0.1,0.2-0.1,0.4,0,0.5c0.5,0.4,0.6,1.1,0.4,1.7c-0.2,0.6-0.8,0.9-1.5,0.9c-0.2,0-0.4,0.1-0.4,0.3&#10;&#9;&#9;&#9;c-0.1,0.5-0.1,1,0,1.5c0,0.2,0.2,0.3,0.4,0.3c0.6,0,1.1,0.3,1.4,0.9c0.2,0.6,0.1,1.2-0.4,1.7c-0.1,0.1-0.2,0.4,0,0.5&#10;&#9;&#9;&#9;c0.3,0.4,0.7,0.8,1.1,1.1c0.2,0.1,0.4,0.1,0.5,0c0.4-0.4,1.1-0.6,1.7-0.4c0.6,0.2,0.9,0.8,0.9,1.5c0,0.2,0.1,0.4,0.3,0.4&#10;&#9;&#9;&#9;c0.3,0,0.5,0,0.8,0c0.2,0,0.5,0,0.7,0c0.2,0,0.3-0.2,0.3-0.4c0-0.6,0.3-1.2,0.9-1.4c0.6-0.2,1.3-0.1,1.7,0.4&#10;&#9;&#9;&#9;c0.1,0.1,0.4,0.2,0.5,0c0.4-0.3,0.8-0.7,1.1-1.1c0.1-0.2,0.1-0.4,0-0.5c-0.5-0.4-0.6-1.1-0.4-1.7c0.2-0.5,0.8-0.9,1.4-0.9l0.1,0&#10;&#9;&#9;&#9;c0.2,0,0.4-0.1,0.4-0.3C46.9,20.3,46.9,19.7,46.8,19.2z M40.2,22.2c-1.2,0-2.2-1-2.2-2.2c0-1.2,1-2.2,2.2-2.2c1.2,0,2.2,1,2.2,2.2&#10;&#9;&#9;&#9;C42.4,21.2,41.4,22.2,40.2,22.2z" id="el_6I4xhZflaT"/></g>
	</g>
</g>
<script>(function(){var a=document.querySelector('#el_uWr0RoEji'),b=a.querySelectorAll('style'),c=function(d){b.forEach(function(f){var g=f.textContent;g&amp;&amp;(f.textContent=g.replace(/transform-box:[^;\r\n]*/gi,'transform-box: '+d))})};c('initial'),window.requestAnimationFrame(function(){return c('fill-box')})})();</script></svg>